<svg id="_85c1b3ad-9dce-41a7-853c-3904ad198ba9" data-name="85c1b3ad-9dce-41a7-853c-3904ad198ba9" xmlns="http://www.w3.org/2000/svg" width="89.38" height="133.99" viewBox="0 0 89.38 133.99"><path d="M17.48,40.32H71.77A7.71,7.71,0,0,1,79.48,48h0a7.71,7.71,0,0,1-7.71,7.71H17.48A7.71,7.71,0,0,1,9.77,48h0A7.71,7.71,0,0,1,17.48,40.32Z" style="fill:#d769a8"/><path d="M27.24,20.16H62a7.71,7.71,0,0,1,7.71,7.71h0A7.71,7.71,0,0,1,62,35.58H27.24a7.71,7.71,0,0,1-7.71-7.71h0A7.71,7.71,0,0,1,27.24,20.16Z" style="fill:#45abbc"/><path d="M49.45,15.42H39.79a7.73,7.73,0,0,1-7.7-7.71h0c12.55-5.79,9.42-4,17.36-7.71h0a7.75,7.75,0,0,1,7.71,7.71h0A7.75,7.75,0,0,1,49.45,15.42Z" style="fill:#ed9c21"/><path d="M74.4,60.93H14.85A5.36,5.36,0,0,0,9.5,66.28h0l6.43,37.94a5.36,5.36,0,0,0,5.35,5.35H68a5.35,5.35,0,0,0,5.48-5.22v-.13l6.43-37.94a5.35,5.35,0,0,0-5.35-5.35ZM54.67,83.48c-4,0-4.74-1.65-4.74-1.65a5.48,5.48,0,0,0-5.15-3.13,5.9,5.9,0,0,0-4.51,1.89,6.75,6.75,0,0,0-1.79,4.81,6.48,6.48,0,0,0,1.79,4.82,6.14,6.14,0,0,0,8.71,0,6.22,6.22,0,0,0,1.11-1.49s.51-1.54,4.48-1.54,4.71,1.54,4.71,1.54A15.64,15.64,0,0,1,55,96.51a14.08,14.08,0,0,1-10.1,3.77A14.57,14.57,0,0,1,34.21,96,14.39,14.39,0,0,1,29.7,85.44,14.58,14.58,0,0,1,34.07,74.7a14.79,14.79,0,0,1,10.84-4.38A14.32,14.32,0,0,1,55.48,74.6a16,16,0,0,1,3.9,7.27A6,6,0,0,1,54.67,83.48Z" style="fill:#6cbe45"/><path d="M8.65,124a3.46,3.46,0,0,0-1.71-.49,3.26,3.26,0,0,0-1.77.49,3.46,3.46,0,0,0-1.26,1.34,4.13,4.13,0,0,0,0,3.79,3.39,3.39,0,0,0,1.26,1.34,3.26,3.26,0,0,0,1.77.49,3.93,3.93,0,0,0,1.65-.4,5.23,5.23,0,0,0,1.54-1.1l2,2.11a7.75,7.75,0,0,1-2.49,1.75,6.87,6.87,0,0,1-6.3-.22,6.48,6.48,0,0,1-2.42-2.4A6.67,6.67,0,0,1,0,127.28a6.38,6.38,0,0,1,3.37-5.74,7.29,7.29,0,0,1,6.33-.27,7,7,0,0,1,2.37,1.63l-2,2.34A4.78,4.78,0,0,0,8.65,124Z" style="fill:#45abbc"/><path d="M18.12,124.17A3.68,3.68,0,0,1,20,123.7v3h-.49a3,3,0,0,0-1.87.54,2.11,2.11,0,0,0-.83,1.47v5.06H13.52v-9.93h3.27v1.65A3.56,3.56,0,0,1,18.12,124.17Z" style="fill:#45abbc"/><path d="M28.67,130.19l1.83,1.65a5.66,5.66,0,0,1-4.54,2,6.06,6.06,0,0,1-2.81-.63,4.55,4.55,0,0,1-1.88-1.76,5.09,5.09,0,0,1-.67-2.62,5.4,5.4,0,0,1,.64-2.67,4.47,4.47,0,0,1,1.83-1.8,5.67,5.67,0,0,1,2.74-.64,5.44,5.44,0,0,1,2.57.58A4.23,4.23,0,0,1,30.12,126a5.28,5.28,0,0,1,.65,2.49l-6.63,1.6a2.18,2.18,0,0,0,2.06,1.34A3.31,3.31,0,0,0,28.67,130.19Zm-4.18-3.58a2.58,2.58,0,0,0-.59,1.64l3.68-.92a1.87,1.87,0,0,0-.6-1,1.7,1.7,0,0,0-1-.33,1.89,1.89,0,0,0-1.44.59Z" style="fill:#45abbc"/><path d="M42.33,123.83v9.93H39.07v-1.25a3.53,3.53,0,0,1-1.26,1,3.65,3.65,0,0,1-1.66.36,4.55,4.55,0,0,1-2.44-.64,4.24,4.24,0,0,1-1.62-1.81,5.89,5.89,0,0,1-.58-2.68,5.71,5.71,0,0,1,.57-2.64,4.14,4.14,0,0,1,1.63-1.76,4.68,4.68,0,0,1,2.42-.63,3.84,3.84,0,0,1,1.67.37,3.53,3.53,0,0,1,1.27,1v-1.29Zm-3.93,6.9a2.54,2.54,0,0,0,.67-1.56v-.66A2.54,2.54,0,0,0,38.4,127a1.93,1.93,0,0,0-1.47-.59,2,2,0,0,0-1.55.69,3.07,3.07,0,0,0,0,3.59,1.94,1.94,0,0,0,1.55.69A1.88,1.88,0,0,0,38.4,130.73Z" style="fill:#45abbc"/><path d="M60.65,124.73a3.86,3.86,0,0,1,1,2.77v6.26H58.37v-5.32a1.94,1.94,0,0,0-.45-1.33,1.52,1.52,0,0,0-1.19-.49,1.73,1.73,0,0,0-1.37.63,2.49,2.49,0,0,0-.49,1.6v4.91H51.61v-5.32a1.88,1.88,0,0,0-.44-1.33,1.52,1.52,0,0,0-1.19-.49,1.72,1.72,0,0,0-1.37.63,2.38,2.38,0,0,0-.49,1.6v4.91H44.87v-9.93h3.25v1.64a3.38,3.38,0,0,1,1.29-1.31,3.89,3.89,0,0,1,1.89-.46,3.6,3.6,0,0,1,2.07.59,3.2,3.2,0,0,1,1.23,1.64A3.53,3.53,0,0,1,56,124.27a3.87,3.87,0,0,1,2.1-.56A3.43,3.43,0,0,1,60.65,124.73Z" style="fill:#45abbc"/><path d="M73.49,121.29A4,4,0,0,1,75,122.93a5.27,5.27,0,0,1,.55,2.46v8.37H72.16v-7.54a2.55,2.55,0,0,0-.6-1.78,2.17,2.17,0,0,0-1.65-.68,2.59,2.59,0,0,0-2,.81,2.83,2.83,0,0,0-.76,2v7.16H63.83V120.9h3.36v1.87a4.47,4.47,0,0,1,1.7-1.53,4.89,4.89,0,0,1,2.32-.54A4.34,4.34,0,0,1,73.49,121.29Z" style="fill:#45abbc"/><path d="M86.36,127.08h2.9v6.68H86.8v-.87a6.49,6.49,0,0,1-1.57.81,5,5,0,0,1-1.67.29,6.51,6.51,0,0,1-3.32-.87,6.31,6.31,0,0,1-2.39-2.39,6.88,6.88,0,0,1-.85-3.44,6.41,6.41,0,0,1,3.44-5.75,7.42,7.42,0,0,1,3.6-.87,8.6,8.6,0,0,1,2.89.53,7.65,7.65,0,0,1,2.45,1.4L87.47,125a5.27,5.27,0,0,0-1.59-1,4.44,4.44,0,0,0-1.79-.39,3.56,3.56,0,0,0-3.16,1.85,4.07,4.07,0,0,0-.49,1.93,4.3,4.3,0,0,0,.45,2,3.48,3.48,0,0,0,1.24,1.37,3.23,3.23,0,0,0,1.76.49,3.12,3.12,0,0,0,1.34-.3,3.56,3.56,0,0,0,1.1-.82Z" style="fill:#45abbc"/></svg>