<svg id="Calque_1" data-name="Calque 1" xmlns="http://www.w3.org/2000/svg" width="125.01" height="1000" viewBox="0 0 125.01 1000"><g id="Calque_1-2" data-name="Calque 1-2"><rect width="35" height="1000" style="fill:#fff;fill-opacity:0"/><rect x="45" width="35" height="1000" style="fill:#fff;fill-opacity:0"/><rect x="90.01" width="35" height="1000" style="fill:#fff;fill-opacity:0"/></g><path d="M8.23,22.55V26.3H12L23,15.24l-3.75-3.75ZM25.94,12.34a1,1,0,0,0,0-1.41L23.6,8.59a1,1,0,0,0-1.41,0l-1.83,1.83,3.75,3.75Z" style="fill:#22232d"/><path d="M53.5,22.55V26.3h3.75L68.31,15.24l-3.75-3.75ZM71.21,12.34a1,1,0,0,0,0-1.41L68.87,8.59a1,1,0,0,0-1.41,0l-1.83,1.83,3.75,3.75Z" style="fill:#22232d"/><path d="M98.53,22.55V26.3h3.75l11.06-11.06-3.75-3.75Zm17.71-10.21a1,1,0,0,0,0-1.41L113.9,8.59a1,1,0,0,0-1.41,0l-1.83,1.83,3.75,3.75Z" style="fill:#13aded"/><path d="M24.5,57.32H21l-1-1H15l-1,1H10.5v2h14m-13,13a2,2,0,0,0,2,2h8a2,2,0,0,0,2-2v-12h-12Z" style="fill:#22232d"/><path d="M69.5,57.32H66l-1-1H60l-1,1H55.5v2h14m-13,13a2,2,0,0,0,2,2h8a2,2,0,0,0,2-2v-12h-12Z" style="fill:#22232d"/><path d="M114.53,57.32H111l-1-1h-5l-1,1h-3.5v2h14m-13,13a2,2,0,0,0,2,2h8a2,2,0,0,0,2-2v-12h-12Z" style="fill:#13aded"/><polygon points="19.87 104.34 16.07 104.34 16.07 111.94 8.47 111.94 8.47 115.74 16.07 115.74 16.07 123.34 19.87 123.34 19.87 115.74 27.47 115.74 27.47 111.94 19.87 111.94 19.87 104.34" style="fill:#22232d"/><polygon points="64.4 104.34 60.6 104.34 60.6 111.94 53 111.94 53 115.74 60.6 115.74 60.6 123.34 64.4 123.34 64.4 115.74 72 115.74 72 111.94 64.4 111.94 64.4 104.34" style="fill:#22232d"/><polygon points="109.43 104.34 105.63 104.34 105.63 111.94 98.03 111.94 98.03 115.74 105.63 115.74 105.63 123.34 109.43 123.34 109.43 115.74 117.03 115.74 117.03 111.94 109.43 111.94 109.43 104.34" style="fill:#13aded"/><path d="M15.86,165.69h4.22v-2.11H15.86ZM8.47,153v2.11h19V153Zm3.17,7.39H24.31V158.3H11.64Z" style="fill:#22232d"/><path d="M60.39,165.82h4.22v-2.11H60.39ZM53,153.15v2.12H72v-2.12Zm3.17,7.39H68.84v-2.11H56.17Z" style="fill:#22232d"/><path d="M105.42,165.82h4.22v-2.11h-4.22ZM98,153.15v2.12h19v-2.12Zm3.17,7.39h12.66v-2.11H101.2Z" style="fill:#13aded"/><path d="M17.5,207.51a2,2,0,1,1-2,2,2,2,0,0,1,2-2m0-6a2,2,0,1,1-2,2,2,2,0,0,1,2-2m0-6a2,2,0,1,1-2,2A2,2,0,0,1,17.5,195.51Z" style="fill:#22232d"/><path d="M62.5,207.51a2,2,0,1,1-2,2,2,2,0,0,1,2-2m0-6a2,2,0,1,1-2,2,2,2,0,0,1,2-2m0-6a2,2,0,1,1-2,2A2,2,0,0,1,62.5,195.51Z" style="fill:#22232d"/><path d="M107.53,207.51a2,2,0,1,1-2,2,2,2,0,0,1,2-2m0-6a2,2,0,1,1-2,2,2,2,0,0,1,2-2m0-6a2,2,0,1,1-2,2A2,2,0,0,1,107.53,195.51Z" style="fill:#13aded"/><path d="M25.32,249.27H20.85v-6.71h-6.7v6.71H9.68l7.82,7.82ZM9.68,259.33v2.23H25.32v-2.23Z" style="fill:#22232d"/><path d="M70.33,249.27H65.86v-6.71H59.15v6.71H54.68l7.82,7.82ZM54.68,259.33v2.23H70.33v-2.23Z" style="fill:#22232d"/><path d="M113.21,248.75h-4.47V242H102v6.71H97.56l7.83,7.82ZM97.56,258.81V261h15.65v-2.23Z" style="fill:#13aded"/><path d="M17.5,306.09l5.87,3.54L21.81,303,27,298.46l-6.83-.59-2.67-6.29-2.67,6.29L8,298.46,13.18,303l-1.55,6.68Z" style="fill:#22232d"/><path d="M62.5,306.09l5.87,3.54L66.82,303,72,298.46l-6.83-.59-2.67-6.29-2.67,6.29-6.83.59L58.18,303l-1.55,6.68Z" style="fill:#22232d"/><path d="M105.39,306.09l5.87,3.54L109.7,303l5.19-4.49-6.84-.59-2.66-6.29-2.67,6.29-6.83.59,5.17,4.49-1.55,6.68Z" style="fill:#13aded"/><rect x="8.47" y="347.08" width="19" height="3.8" style="fill:#22232d"/><rect x="53" y="347.08" width="19" height="3.8" style="fill:#22232d"/><rect x="95.89" y="347.08" width="19" height="3.8" style="fill:#13aded"/><path d="M16.24,395.35,11.93,391l1.21-1.22,3.1,3.1,6.56-6.56,1.2,1.26m0-5.18H11.93a1.72,1.72,0,0,0-1.73,1.71h0v11.18a1.72,1.72,0,0,0,.76,1.44l7,4.67,7-4.67a1.77,1.77,0,0,0,.76-1.44V384.13A1.72,1.72,0,0,0,24,382.4Z" style="fill:#22232d"/><path d="M60.66,395.35,56.35,391l1.21-1.22,3.1,3.1,6.56-6.56,1.22,1.23m0-5.18H56.35a1.72,1.72,0,0,0-1.73,1.71h0v11.18a1.72,1.72,0,0,0,.76,1.44l7,4.67,7-4.67a1.73,1.73,0,0,0,.77-1.44V384.13a1.72,1.72,0,0,0-1.71-1.73h0Z" style="fill:#22232d"/><path d="M104.78,395.35,100.46,391l1.22-1.22,3.1,3.1,6.55-6.56,1.22,1.23m0-5.18H100.46a1.72,1.72,0,0,0-1.73,1.71h0v11.18a1.72,1.72,0,0,0,.76,1.44l7,4.67,7-4.67a1.73,1.73,0,0,0,.77-1.44V384.13a1.73,1.73,0,0,0-1.71-1.73Z" style="fill:#13aded"/><path d="M14.12,440.18v1.9h-1.9v-1.9h1.9m9.5-6.65a1.9,1.9,0,0,1,1.9,1.9v13.3a1.9,1.9,0,0,1-1.9,1.9H10.32a1.91,1.91,0,0,1-1.9-1.9v-13.3a1.9,1.9,0,0,1,1.9-1.9h.95v-1.9h1.9v1.9h7.6v-1.9h1.9v1.9h.95m0,15.2V438.28H10.32v10.45h13.3" style="fill:#22232d"/><path d="M59.65,440.18v1.9h-1.9v-1.9h1.9m9.5-6.65a1.9,1.9,0,0,1,1.9,1.9v13.3a1.9,1.9,0,0,1-1.9,1.9H55.85a1.91,1.91,0,0,1-1.9-1.9v-13.3a1.9,1.9,0,0,1,1.9-1.9h.95v-1.9h1.9v1.9h7.6v-1.9h1.9v1.9h1m0,15.2V438.28H55.85v10.45h13.3" style="fill:#22232d"/><path d="M103.71,440.18v1.9h-1.9v-1.9h1.9m9.5-6.65a1.9,1.9,0,0,1,1.9,1.9v13.3a1.9,1.9,0,0,1-1.9,1.9H99.91a1.9,1.9,0,0,1-1.9-1.9v-13.3a1.9,1.9,0,0,1,1.9-1.9h1v-1.9h1.9v1.9h7.6v-1.9h1.9v1.9h1m0,15.2V438.28H99.91v10.45h13.3" style="fill:#13aded"/><path d="M16.07,495.85l-3.8-3.8,1.34-1.34,2.46,2.45,6.26-6.26,1.34,1.35m-5.7-5.7a.95.95,0,1,1,0,1.9h0a.95.95,0,0,1,0-1.9m6.65,0h-4A2.84,2.84,0,0,0,17,480.81h0a2.88,2.88,0,0,0-1.74,1.74h-4a1.9,1.9,0,0,0-1.9,1.9v13.3a1.9,1.9,0,0,0,1.9,1.9h13.3a1.9,1.9,0,0,0,1.9-1.9v-13.3a1.89,1.89,0,0,0-1.84-1.9Z" style="fill:#22232d"/><path d="M60.6,495.85l-3.8-3.8,1.34-1.34,2.46,2.45,6.26-6.26,1.34,1.35m-5.7-5.7a.95.95,0,1,1,0,1.9h0a.95.95,0,0,1,0-1.9m6.65,0h-4a2.84,2.84,0,0,0-3.62-1.74h0a2.88,2.88,0,0,0-1.74,1.74h-4a1.9,1.9,0,0,0-1.9,1.9v13.3a1.9,1.9,0,0,0,1.9,1.9h13.3a1.9,1.9,0,0,0,1.9-1.9v-13.3A1.89,1.89,0,0,0,69.15,482.55Z" style="fill:#22232d"/><path d="M106.61,495.85l-3.8-3.8,1.34-1.34,2.46,2.45,6.26-6.26,1.34,1.35m-5.7-5.7a1,1,0,1,1-.05,0h.05m6.65,0h-4a2.84,2.84,0,0,0-3.62-1.74h0a2.88,2.88,0,0,0-1.74,1.74h-4a1.9,1.9,0,0,0-1.9,1.9v13.3a1.9,1.9,0,0,0,1.9,1.9h13.3a1.9,1.9,0,0,0,1.9-1.9v-13.3A1.89,1.89,0,0,0,115.16,482.55Z" style="fill:#13aded"/><path d="M17,530a4.75,4.75,0,1,1-4.75,4.75h0A4.74,4.74,0,0,1,17,530h0m0,11.87c5.25,0,9.5,2.13,9.5,4.75V549H7.5v-2.38c0-2.62,4.22-4.73,9.5-4.73Z" style="fill:#22232d"/><path d="M62.5,530a4.75,4.75,0,1,1-4.75,4.75h0A4.74,4.74,0,0,1,62.48,530h0m0,11.87c5.25,0,9.5,2.13,9.5,4.75V549H53v-2.38c0-2.62,4.25-4.73,9.5-4.73Z" style="fill:#22232d"/><path d="M107.51,530a4.75,4.75,0,1,1-4.75,4.75h0a4.75,4.75,0,0,1,4.75-4.75m0,11.87c5.24,0,9.5,2.13,9.5,4.75V549H98v-2.38c0-2.62,4.26-4.73,9.51-4.73Z" style="fill:#13aded"/><path d="M13.22,580h14v2h-14v-2m0,8v-2h14v2h-14m-3-8.5a1.5,1.5,0,1,1-1.5,1.5,1.5,1.5,0,0,1,1.5-1.5m0,6a1.5,1.5,0,1,1-1.5,1.5,1.5,1.5,0,0,1,1.5-1.5m3,8.5v-2h14v2h-14m-3-2.5a1.5,1.5,0,1,1-1.5,1.5A1.5,1.5,0,0,1,10.22,591.5Z" style="fill:#22232d"/><path d="M57.75,580h14v2h-14v-2m0,8v-2h14v2h-14m-3-8.5a1.5,1.5,0,1,1-1.5,1.5,1.5,1.5,0,0,1,1.5-1.5m0,6a1.5,1.5,0,1,1-1.5,1.5,1.5,1.5,0,0,1,1.5-1.5m3,8.5v-2h14v2h-14m-3-2.5a1.5,1.5,0,1,1-1.5,1.5A1.5,1.5,0,0,1,54.75,591.5Z" style="fill:#22232d"/><path d="M102.76,580h14v2h-14v-2m0,8v-2h14v2h-14m-3-8.5a1.5,1.5,0,1,1-1.5,1.5,1.5,1.5,0,0,1,1.5-1.5m0,6a1.5,1.5,0,1,1-1.5,1.5,1.5,1.5,0,0,1,1.5-1.5m3,8.5v-2h14v2h-14m-3-2.5a1.5,1.5,0,1,1-1.5,1.5A1.5,1.5,0,0,1,99.76,591.5Z" style="fill:#13aded"/><path d="M27.72,628.73l-4.22-4.22v3.16H16.11v2.11H23.5V633m-10.56-2.11-4.22,4.22,4.22,4.22v-3.16h7.39V634H12.94Z" style="fill:#22232d"/><path d="M72,628.73l-4.22-4.22v3.16H60.39v2.11h7.39V633m-10.55-2.11L53,635.06l4.23,4.22v-3.16h7.38V634H57.23Z" style="fill:#22232d"/><path d="M118.76,628.73l-4.23-4.22v3.16h-7.39v2.11h7.39V633M104,630.84l-4.22,4.22,4.22,4.22v-3.16h7.39V634H104Z" style="fill:#13aded"/><polygon points="10.87 669.63 25.26 669.63 18.07 679.81 10.87 669.63" style="fill:#22232d"/><polygon points="57.42 669.63 71.8 669.63 64.61 679.81 57.42 669.63" style="fill:#22232d"/><polygon points="99.95 669.9 114.33 669.9 107.14 680.08 99.95 669.9" style="fill:#13aded"/><polygon points="14.01 753.59 14.01 762.89 20.99 758.24 14.01 753.59" style="fill:#22232d"/><polygon points="67.18 755.76 57.88 755.76 62.53 762.74 67.18 755.76" style="fill:#22232d"/><path d="M64.51,715a2.59,2.59,0,1,0,2.59,2.59A2.59,2.59,0,0,0,64.51,715h0m0,6.91a4.32,4.32,0,1,1,4.31-4.33h0A4.31,4.31,0,0,1,64.61,722h-.1m0-10.8a10.2,10.2,0,0,0-9.5,6.48,10.2,10.2,0,0,0,19,0,10.24,10.24,0,0,0-9.5-6.53Z" style="fill:#22232d"/><path d="M103.71,715a2.59,2.59,0,1,0,2.59,2.59,2.59,2.59,0,0,0-2.59-2.59h0m0,6.91a4.32,4.32,0,1,1,4.32-4.32,4.31,4.31,0,0,1-4.32,4.32h0m0-10.8a10.2,10.2,0,0,0-9.5,6.48,10.2,10.2,0,0,0,19,0,10.22,10.22,0,0,0-9.5-6.44Z" style="fill:#13aded"/><path d="M18.29,714.22a2.6,2.6,0,1,0,2.59,2.61h0a2.59,2.59,0,0,0-2.58-2.6h0m0,6.91a4.32,4.32,0,1,1,4.32-4.32h0a4.31,4.31,0,0,1-4.31,4.31h0m0-10.79a10.21,10.21,0,0,0-9.5,6.48,10.21,10.21,0,0,0,19,0,10.2,10.2,0,0,0-9.5-6.48Z" style="fill:#22232d"/></svg>